<svg width="1060" height="418" viewBox="0 0 1060 418" fill="none" xmlns="http://www.w3.org/2000/svg">
<rect width="1060" height="418" fill="#434343"/>
<path fill-rule="evenodd" clip-rule="evenodd" d="M152.911 377.466V387.256H24.7129V377.466C37.3698 376.588 45.8599 373.921 50.1833 369.466C54.5067 365.01 56.6684 355.943 56.6684 342.263V171.895C56.6684 157.337 54.4753 148.144 50.0893 144.316C45.7032 140.489 37.2444 137.884 24.7129 136.504V126.715H148.587C181.42 126.715 206.389 132.049 223.495 142.716C240.6 153.384 249.153 171.707 249.153 197.686C249.153 210.361 245.801 222.253 239.097 233.36C232.392 244.466 221.333 253.408 205.919 260.185C194.265 264.955 182.611 267.841 170.956 268.845C159.302 269.849 142.008 270.351 119.076 270.351V342.263C119.076 356.445 121.457 365.732 126.219 370.125C130.98 374.517 139.878 376.964 152.911 377.466ZM119.076 153.447V256.985C142.008 256.609 157.297 253.973 164.941 249.079C177.097 241.298 183.174 224.543 183.174 198.815C183.174 181.245 180.23 167.064 174.34 156.27C168.45 145.477 157.171 140.081 140.504 140.081C132.86 140.081 127.378 140.991 124.057 142.81C120.736 144.63 119.076 148.176 119.076 153.447ZM349.756 392.715C362.914 392.715 374.568 390.268 384.719 385.373C400.383 377.717 414.168 364.101 426.073 344.522L417.238 339.063C409.97 347.095 403.892 352.805 399.005 356.194C390.985 361.842 382.463 364.665 373.44 364.665C354.518 364.665 341.297 354.06 333.778 332.851C329.643 321.556 327.136 308.19 326.259 292.753H424.381C424.381 289.239 423.943 284.156 423.065 277.505C421.311 263.323 418.178 251.777 413.667 242.866C407.651 231.069 399.067 221.845 387.914 215.193C376.761 208.542 364.856 205.216 352.199 205.216C330.018 205.216 311.065 213.405 295.337 229.783C279.61 246.161 271.747 269.159 271.747 298.777C271.747 331.533 280.018 355.378 296.559 370.313C313.101 385.247 330.833 392.715 349.756 392.715ZM325.319 278.446H377.012C376.761 255.73 375.007 239.854 371.749 230.818C368.49 221.782 361.974 217.264 352.199 217.264C342.174 217.264 335.313 222.472 331.616 232.889C327.919 243.306 325.82 258.491 325.319 278.446ZM588.143 392.715C594.534 392.715 600.612 391.585 606.376 389.326C615.524 385.812 623.858 379.663 631.377 370.878L625.549 362.783C623.043 365.293 621.195 366.83 620.004 367.395C618.814 367.96 617.467 368.242 615.963 368.242C614.208 368.242 612.611 367.269 611.169 365.324C609.728 363.379 609.008 361.026 609.008 358.265V264.892C609.008 242.051 601.74 226.363 587.203 217.829C572.541 209.42 554.308 205.216 532.503 205.216C512.202 205.216 495.096 209.546 481.186 218.205C467.276 226.865 460.321 238.599 460.321 253.408C460.321 261.691 462.921 268.029 468.122 272.422C473.322 276.814 479.619 279.011 487.013 279.011C493.404 279.011 499.012 277.034 503.837 273.081C508.661 269.127 511.074 263.511 511.074 256.232C511.074 253.346 510.541 250.616 509.476 248.043C508.411 245.47 507.001 243.117 505.247 240.984L502.991 238.348C501.988 237.219 501.236 236.152 500.735 235.148C500.234 234.144 499.983 232.889 499.983 231.383C499.983 227.492 502.208 224.261 506.656 221.688C511.105 219.115 516.776 217.829 523.668 217.829C535.949 217.829 544.502 220.558 549.326 226.018C554.151 231.477 556.563 239.917 556.563 251.338V279.387C520.974 289.678 494.845 299.907 478.178 310.072C461.511 320.238 453.178 333.98 453.178 351.299C453.178 365.481 457.752 375.929 466.9 382.643C476.048 389.358 485.885 392.715 496.412 392.715C504.307 392.715 512.327 391.334 520.472 388.573C533.881 384.181 545.911 376.651 556.563 365.983C557.942 373.388 560.135 378.972 563.142 382.737C568.406 389.389 576.739 392.715 588.143 392.715ZM514.927 358.735C518.749 363.065 523.041 365.23 527.803 365.23C534.069 365.23 539.896 363.348 545.285 359.583C548.292 357.323 551.864 353.809 555.999 349.04V292.753C545.723 295.263 536.701 299.216 528.931 304.613C515.773 313.775 509.194 325.446 509.194 339.628C509.194 348.036 511.105 354.406 514.927 358.735ZM743.258 387.256V378.031C734.486 376.902 729.034 374.894 726.904 372.007C724.774 369.121 723.708 363.348 723.708 354.688V311.014L732.167 301.601L768.634 353.37C772.769 359.269 775.37 363.316 776.435 365.512C777.5 367.709 778.033 369.434 778.033 370.689C778.033 373.074 776.748 374.831 774.179 375.96C771.61 377.09 767.569 377.78 762.055 378.031V387.256H851.906V378.031C849.651 377.655 847.833 377.121 846.455 376.431C845.077 375.741 843.635 374.329 842.132 372.195L767.694 269.598L797.582 239.29C805.352 231.508 813.372 225.986 821.643 222.723C826.279 220.966 832.545 219.586 840.44 218.582V209.734H757.92V218.582C766.19 219.335 772.049 220.339 775.495 221.594C778.941 222.849 780.664 225.422 780.664 229.312C780.664 230.818 780.038 232.858 778.785 235.43C777.531 238.003 775.464 240.733 772.582 243.619L723.708 292.753V126.715H651.527V136.127C658.67 137.759 663.557 139.83 666.189 142.34C668.82 144.85 670.136 150.184 670.136 158.341V354.688C670.136 363.222 668.726 368.838 665.907 371.536C663.087 374.235 658.294 376.4 651.527 378.031V387.256H743.258ZM893.203 384.149C891.637 385.844 889.851 388.699 887.846 392.715H878.635V328.897H889.35C893.109 347.346 900.127 360.367 910.403 367.96C920.679 375.553 931.205 379.349 941.982 379.349C951.882 379.349 959.151 377.121 963.787 372.666C968.424 368.211 970.742 362.344 970.742 355.064C970.742 348.162 968.236 342.263 963.223 337.369C960.466 334.733 956.018 331.909 949.877 328.897L921.305 314.967C906.267 307.562 895.49 299.53 888.974 290.871C882.332 282.211 879.011 271.983 879.011 260.185C879.011 245.251 884.212 232.356 894.613 221.5C905.014 210.644 919.551 205.216 938.223 205.216C946.368 205.216 955.015 206.565 964.163 209.263C973.311 211.962 979.013 213.311 981.269 213.311C984.402 213.311 986.626 212.652 987.942 211.334C989.258 210.016 990.354 208.165 991.231 205.781H999.69V261.503H989.916C986.281 248.451 980.329 237.972 972.058 230.065C963.787 222.159 954.138 218.205 943.11 218.205C934.589 218.205 928.229 220.59 924.031 225.359C919.833 230.128 917.734 235.273 917.734 240.796C917.734 245.314 919.614 249.832 923.373 254.35C927.007 258.993 933.899 263.762 944.05 268.657L965.103 278.822C978.136 285.097 987.66 291.184 993.675 297.083C1003.7 307.123 1008.71 319.485 1008.71 334.168C1008.71 348.476 1003.54 361.81 993.205 374.172C982.867 386.534 967.359 392.715 946.682 392.715C941.544 392.715 936.374 392.181 931.174 391.115C925.973 390.048 919.551 388.197 911.907 385.561L905.328 383.302C902.947 382.424 901.474 381.922 900.91 381.796C900.346 381.671 899.626 381.608 898.748 381.608C896.618 381.608 894.77 382.455 893.203 384.149Z" fill="white"/>
<path fill-rule="evenodd" clip-rule="evenodd" d="M361.253 168.116V173.636H283.855V168.116C292.337 168.116 297.974 166.789 300.766 164.135C303.558 161.481 304.954 156.191 304.954 148.265V33.8274C294.351 34.1105 286.223 35.7736 280.568 38.8168C270.178 44.4785 264.311 55.0588 262.968 70.5577H256.713L256.925 26.7148H387.653L387.865 70.5577H381.609C379.559 54.9173 373.693 44.3369 364.009 38.8168C358.567 35.7736 350.438 34.1105 339.624 33.8274V148.265C339.624 156.262 341.02 161.57 343.812 164.188C346.604 166.807 352.417 168.116 361.253 168.116ZM451.797 168.435V173.636H399.527V168.435C403.486 167.939 406.401 166.86 408.274 165.197C410.147 163.534 411.084 160.225 411.084 155.271V44.5492C411.084 40.2322 410.306 37.2067 408.751 35.4728C407.196 33.7389 404.122 32.5889 399.527 32.0227V26.7148H441.513V87.8613C445.966 82.4827 450.649 78.3249 455.561 75.3879C460.474 72.4509 466.004 70.9824 472.154 70.9824C480.494 70.9824 487.386 73.4063 492.829 78.2541C498.271 83.102 500.992 91.3645 500.992 103.042V155.271C500.992 160.154 501.823 163.357 503.484 164.878C505.145 166.4 507.919 167.585 511.807 168.435V173.636H460.809V168.435C464.697 167.656 467.347 166.595 468.761 165.25C470.175 163.905 470.882 160.862 470.882 156.12V103.466C470.882 98.5124 470.387 94.7969 469.397 92.3199C467.701 87.8613 464.343 85.632 459.325 85.632C455.579 85.632 451.709 87.3659 447.715 90.8337C443.722 94.3015 441.725 96.6724 441.725 97.9463V156.12C441.725 160.862 442.432 163.905 443.845 165.25C445.259 166.595 447.91 167.656 451.797 168.435ZM565.667 176.715C573.089 176.715 579.662 175.335 585.388 172.575C594.223 168.258 601.998 160.579 608.713 149.539L603.73 146.46C599.63 150.989 596.202 154.21 593.445 156.12C588.922 159.305 584.115 160.897 579.026 160.897C568.353 160.897 560.896 154.917 556.655 142.957C554.323 136.587 552.909 129.05 552.414 120.345H607.759C607.759 118.364 607.511 115.498 607.017 111.747C606.027 103.75 604.26 97.2386 601.715 92.2138C598.323 85.5613 593.481 80.3596 587.19 76.6087C580.899 72.8578 574.184 70.9824 567.045 70.9824C554.535 70.9824 543.844 75.6002 534.973 84.8359C526.102 94.0715 521.667 107.04 521.667 123.742C521.667 142.214 526.332 155.66 535.662 164.082C544.992 172.504 554.994 176.715 565.667 176.715ZM551.884 112.277H581.041C580.899 99.4678 579.91 90.5153 578.072 85.4197C576.234 80.3242 572.559 77.7764 567.045 77.7764C561.391 77.7764 557.521 80.7134 555.436 86.5875C553.351 92.4615 552.167 101.025 551.884 112.277Z" fill="white"/>
</svg>
